<svg width="24" height="24" viewBox="0 0 24 24" fill="none" xmlns="http://www.w3.org/2000/svg">
<path d="M18.364 17.364L12 23.728L5.636 17.364C4.37734 16.1053 3.52019 14.5017 3.17293 12.7558C2.82567 11.01 3.00391 9.20043 3.6851 7.5559C4.36629 5.91137 5.51984 4.50577 6.99988 3.51684C8.47992 2.52791 10.22 2.00008 12 2.00008C13.78 2.00008 15.5201 2.52791 17.0001 3.51684C18.4802 4.50577 19.6337 5.91137 20.3149 7.5559C20.9961 9.20043 21.1743 11.01 20.8271 12.7558C20.4798 14.5017 19.6227 16.1053 18.364 17.364V17.364ZM12 15C13.0609 15 14.0783 14.5786 14.8284 13.8284C15.5786 13.0783 16 12.0609 16 11C16 9.93913 15.5786 8.92172 14.8284 8.17157C14.0783 7.42143 13.0609 7 12 7C10.9391 7 9.92172 7.42143 9.17158 8.17157C8.42143 8.92172 8 9.93913 8 11C8 12.0609 8.42143 13.0783 9.17158 13.8284C9.92172 14.5786 10.9391 15 12 15V15ZM12 13C11.4696 13 10.9609 12.7893 10.5858 12.4142C10.2107 12.0391 10 11.5304 10 11C10 10.4696 10.2107 9.96086 10.5858 9.58578C10.9609 9.21071 11.4696 9 12 9C12.5304 9 13.0391 9.21071 13.4142 9.58578C13.7893 9.96086 14 10.4696 14 11C14 11.5304 13.7893 12.0391 13.4142 12.4142C13.0391 12.7893 12.5304 13 12 13Z" fill="#0052FF"/>
</svg>
